<?xml version="1.0" encoding="UTF-8" standalone="no"?>
<svg
   width="15.054482"
   height="18.480928"
   viewBox="0 0 15.054482 18.480928"
   version="1.1"
   id="svg184"
   sodipodi:docname="apple.svg"
   inkscape:version="1.2.1 (9c6d41e, 2022-07-14)"
   xmlns:inkscape="http://www.inkscape.org/namespaces/inkscape"
   xmlns:sodipodi="http://sodipodi.sourceforge.net/DTD/sodipodi-0.dtd"
   xmlns="http://www.w3.org/2000/svg"
   xmlns:svg="http://www.w3.org/2000/svg">
  <defs
     id="defs188" />
  <sodipodi:namedview
     id="namedview186"
     pagecolor="#ffffff"
     bordercolor="#000000"
     borderopacity="0.25"
     inkscape:showpageshadow="2"
     inkscape:pageopacity="0.0"
     inkscape:pagecheckerboard="0"
     inkscape:deskcolor="#d1d1d1"
     showgrid="false"
     inkscape:zoom="18.866527"
     inkscape:cx="10.971813"
     inkscape:cy="8.3481183"
     inkscape:window-width="1800"
     inkscape:window-height="1097"
     inkscape:window-x="0"
     inkscape:window-y="44"
     inkscape:window-maximized="0"
     inkscape:current-layer="svg184" />
  <path
     d="m 7.6444816,5.31 c -0.73,0 -1.86,-0.83 -3.05,-0.8 -1.57,0.02 -3.01,0.91 -3.81999999,2.32 -1.63,2.83 -0.42,7.01 1.16999999,9.31 0.78,1.12 1.7,2.38 2.92,2.34 1.17,-0.05 1.61,-0.76 3.03,-0.76 1.41,0 1.81,0.76 3.0500004,0.73 1.26,-0.02 2.06,-1.14 2.83,-2.27 0.89,-1.3 1.26,-2.56 1.28,-2.63 -0.03,-0.01 -2.45,-0.94 -2.48,-3.74 -0.02,-2.34 1.91,-3.46 2,-3.51 -1.1,-1.61 -2.79,-1.79 -3.38,-1.83 C 9.6544816,4.35 8.3644816,5.31 7.6444816,5.31 Z M 10.244482,2.95 c 0.65,-0.78 1.08,-1.87 0.96,-2.95 -0.93,0.04 -2.0500004,0.62 -2.7200004,1.4 -0.6,0.69 -1.12,1.8 -0.98,2.86 1.03,0.08 2.09,-0.53 2.7400004,-1.31"
     fill="#fff"
     id="path182"
     style="fill:#323232;fill-opacity:1" />
</svg>
