<?xml version="1.0" encoding="UTF-8" standalone="no"?>
<svg
   height="31.233665"
   viewBox="0 0 31.233665 31.233665"
   width="31.233665"
   version="1.1"
   id="svg330"
   sodipodi:docname="apple-favicon.svg"
   inkscape:version="1.2.1 (9c6d41e, 2022-07-14)"
   xmlns:inkscape="http://www.inkscape.org/namespaces/inkscape"
   xmlns:sodipodi="http://sodipodi.sourceforge.net/DTD/sodipodi-0.dtd"
   xmlns="http://www.w3.org/2000/svg"
   xmlns:svg="http://www.w3.org/2000/svg">
  <defs
     id="defs334" />
  <sodipodi:namedview
     id="namedview332"
     pagecolor="#ffffff"
     bordercolor="#000000"
     borderopacity="0.25"
     inkscape:showpageshadow="2"
     inkscape:pageopacity="0.0"
     inkscape:pagecheckerboard="0"
     inkscape:deskcolor="#d1d1d1"
     showgrid="false"
     inkscape:zoom="20.522727"
     inkscape:cx="4.0199336"
     inkscape:cy="10.939092"
     inkscape:window-width="1800"
     inkscape:window-height="1097"
     inkscape:window-x="0"
     inkscape:window-y="44"
     inkscape:window-maximized="0"
     inkscape:current-layer="svg330" />
  <circle
     style="fill:#ffffff;stroke-width:0.377953;fill-opacity:1"
     id="path238"
     cx="15.616833"
     cy="15.616833"
     r="15.616833" />
  <path
     d="m 21.985185,10.938992 a 3.7860369,3.7860369 0 0 0 -1.808908,3.184571 3.6845166,3.6845166 0 0 0 2.242152,3.379432 8.8033224,8.8033224 0 0 1 -1.148186,2.372093 c -0.714838,1.029048 -1.462291,2.057989 -2.599571,2.057989 -1.137279,0 -1.429779,-0.660722 -2.740419,-0.660722 -1.278128,0 -1.733083,0.682431 -2.772932,0.682431 -1.039849,0 -1.765488,-0.953221 -2.59957,-2.123013 A 10.261314,10.261314 0 0 1 8.813867,14.296819 c 0,-3.24949 2.112209,-4.971664 4.191803,-4.971664 1.104873,0 2.025582,0.725639 2.718815,0.725639 0.660722,0 1.689768,-0.769058 2.946187,-0.769058 a 3.9411491,3.9411491 0 0 1 3.314513,1.657256 z M 18.074974,7.906177 A 3.7351719,3.7351719 0 0 0 18.963172,5.5779209 1.6101669,1.6101669 0 0 0 18.930661,5.2423166 3.7426181,3.7426181 0 0 0 16.471834,6.509643 3.6317638,3.6317638 0 0 0 15.551125,8.7734 a 1.4881957,1.4881957 0 0 0 0.03251,0.303303 1.2480288,1.2480288 0 0 0 0.227477,0.02171 3.2443504,3.2443504 0 0 0 2.263862,-1.192236 z"
     id="path328"
     style="opacity:1;stroke-width:1.04877" />
</svg>
