<?xml version="1.0" encoding="UTF-8" standalone="no"?>
<svg
   width="14"
   height="17"
   viewBox="0 0 14 17"
   version="1.1"
   id="svg184"
   sodipodi:docname="bag.svg"
   inkscape:version="1.2.1 (9c6d41e, 2022-07-14)"
   xmlns:inkscape="http://www.inkscape.org/namespaces/inkscape"
   xmlns:sodipodi="http://sodipodi.sourceforge.net/DTD/sodipodi-0.dtd"
   xmlns="http://www.w3.org/2000/svg"
   xmlns:svg="http://www.w3.org/2000/svg">
  <defs
     id="defs188" />
  <sodipodi:namedview
     id="namedview186"
     pagecolor="#ffffff"
     bordercolor="#000000"
     borderopacity="0.25"
     inkscape:showpageshadow="2"
     inkscape:pageopacity="0.0"
     inkscape:pagecheckerboard="0"
     inkscape:deskcolor="#d1d1d1"
     showgrid="false"
     inkscape:zoom="9.5707062"
     inkscape:cx="0.31345649"
     inkscape:cy="8.7245391"
     inkscape:window-width="1800"
     inkscape:window-height="1097"
     inkscape:window-x="0"
     inkscape:window-y="44"
     inkscape:window-maximized="0"
     inkscape:current-layer="svg184" />
  <path
     d="M 12.5,3 H 10.69 C 10.41,1.14 8.65,0 7,0 5.35,0 3.58,1.14 3.31,3 H 1.5 C 0.67,3 0,3.67 0,4.5 v 11 C 0,16.33 0.67,17 1.5,17 h 11 C 13.33,17 14,16.33 14,15.5 V 4.5 C 14,3.67 13.33,3 12.5,3 Z M 7,1 C 8.18,1 9.43,1.75 9.7,3 H 4.3 C 4.57,1.75 5.82,1 7,1 Z m 6,14.5 C 13,15.78 12.78,16 12.5,16 H 1.5 C 1.22,16 1,15.78 1,15.5 V 4.5 C 1,4.22 1.22,4 1.5,4 h 11 C 12.78,4 13,4.22 13,4.5 Z"
     fill="#fff"
     id="path182"
     style="fill:#323232;fill-opacity:1" />
</svg>
